<svg xmlns="http://www.w3.org/2000/svg" xmlns:xlink="http://www.w3.org/1999/xlink" version="1.1" style="enable-background:new 131 -131 512 512;" xml:space="preserve" width="512" height="512"><rect id="backgroundrect" width="100%" height="100%" x="0" y="0" fill="none" stroke="none"/>

<g class="currentLayer" style=""><title>Layer 1</title><g id="XMLID_2_" class="selected" fill-opacity="1" fill="#0061af">
	<path id="XMLID_9_" d="M157.80828552246095,332.7049728393555 l22.3,-40 c-16.8,-12.1 -29.8,-27 -39.1,-45.6 s-14,-37.2 -14,-57.7 c0,-23.3 5.6,-44.7 17.7,-64.2 C100.90828552246094,147.50497283935547 64.60828552246093,181.10497283935547 35.80828552246095,225.70497283935546 C67.50828552246094,275.00497283935545 108.40828552246094,310.30497283935546 157.80828552246095,332.7049728393555 zM269.50828552246094,115.80497283935547 c0,-3.7 -0.9,-7.4 -3.7,-9.3 c-2.8,-2.8 -5.6,-3.7 -9.3,-3.7 c-24.2,0 -44.7,8.4 -61.4,25.1 S170.00828552246094,165.10497283935547 170.00828552246094,189.30497283935546 c0,3.7 0.9,7.4 3.7,9.3 c2.8,1.9 5.6,3.7 9.3,3.7 s7.4,-0.9 9.3,-3.7 c2.8,-2.8 3.7,-5.6 3.7,-9.3 c0,-16.8 5.6,-30.7 17.7,-41.9 c11.2,-11.2 26.1,-17.7 41.9,-17.7 c3.7,0 7.4,-0.9 9.3,-3.7 C267.60828552246096,123.20497283935546 269.50828552246094,119.50497283935547 269.50828552246094,115.80497283935547 zM372.80828552246095,61.80497283935547 c0,0.9 0,1.9 0,2.8 C353.30828552246095,100.00497283935547 322.50828552246094,154.00497283935547 282.50828552246094,226.60497283935547 s-69.8,125.7 -90.3,162 l-14,25.1 c-1.9,2.8 -4.7,4.7 -8.4,4.7 c-1.9,0 -14.9,-6.5 -38.2,-19.5 c-2.8,-1.9 -4.7,-4.7 -4.7,-8.4 c0,-1.9 4.7,-10.2 13,-25.1 c-27,-12.1 -52.1,-28.9 -75.4,-49.3 c-23.1,-20.6 -42.7,-43.9 -59.4,-70 c-3.7,-5.6 -5.6,-12.1 -5.6,-19.5 s1.9,-14 5.6,-19.5 c28.9,-44.7 65.2,-80.1 108.9,-106.1 S204.30828552246095,61.80497283935547 255.50828552246094,61.80497283935547 c16.8,0 34.4,1.9 51.2,4.7 l15.8,-28 c1.9,-2.8 4.7,-4.7 8.4,-4.7 c0.9,0 2.8,0.9 5.6,1.9 c2.8,0.9 5.6,2.8 9.3,4.7 c3.7,1.9 6.5,3.7 9.3,5.6 s5.6,3.7 9.3,5.6 c3.7,1.9 4.7,2.8 5.6,3.7 C371.9082855224609,55.30497283935547 372.80828552246095,58.10497283935547 372.80828552246095,61.80497283935547 zM384.00828552246094,189.30497283935546 c0,26.1 -7.4,50.3 -22.3,72.6 c-14.9,21.4 -35.4,37.2 -59.6,46.5 l80,-143.3 C383.00828552246094,173.50497283935547 384.00828552246094,181.90497283935548 384.00828552246094,189.30497283935546 zM511.50828552246094,225.60497283935547 c0,6.5 -1.9,13 -5.6,19.5 c-7.4,12.1 -17.7,26.1 -30.7,41.9 c-28.9,32.6 -61.4,58.6 -99.6,76.3 c-37.2,17.7 -77.3,27 -120.1,27 l21.4,-38.2 c40,-3.7 78.2,-16.8 111.7,-39.1 c34.4,-22.3 63.3,-52.1 86.6,-87.5 c-22.3,-34.4 -48.4,-62.4 -81,-83.8 l17.7,-31.7 c17.7,12.1 35.4,27 52.1,43.8 s30.7,34.4 41,52.1 C509.60828552246096,212.60497283935547 511.50828552246094,219.10497283935547 511.50828552246094,225.60497283935547 z" fill="#0061af"/>
</g></g></svg>