<?xml version="1.0" encoding="utf-8"?>
<!-- Generator: Adobe Illustrator 21.1.0, SVG Export Plug-In . SVG Version: 6.00 Build 0)  -->
<svg version="1.1" id="Layer_1" xmlns="http://www.w3.org/2000/svg" xmlns:xlink="http://www.w3.org/1999/xlink" x="0px" y="0px"
	 viewBox="0 0 36 36" style="enable-background:new 0 0 36 36;" xml:space="preserve">
<g>
	<path fill="#969696" d="M18.1,0c-9.9,0-18,8.1-18,18s8.1,18,18,18s18-8.1,18-18S28,0,18.1,0z M18,35C8.6,35,1,27.4,1,18C1,8.6,8.6,1,18,1
		c9.4,0,17,7.6,17,17C35,27.4,27.4,35,18,35z"/>
	<path fill="#969696" d="M16.7,13.9c0,1.5,0,1.9,0,1.9H15V18h1.7v6.7h2.8V18h2l0.2-2.3h-2.2c0,0,0-0.5,0-0.9c0-0.5,0.1-0.8,0.6-0.8
		c0.4,0,1.6,0,1.6,0v-2.8c0,0-1.8,0-2.1,0C17.6,11.3,16.7,12.2,16.7,13.9z"/>
</g>
</svg>
