<?xml version="1.0" encoding="utf-8"?>
<!-- Generator: Adobe Illustrator 21.1.0, SVG Export Plug-In . SVG Version: 6.00 Build 0)  -->
<svg version="1.1" id="Layer_1" xmlns="http://www.w3.org/2000/svg" xmlns:xlink="http://www.w3.org/1999/xlink" x="0px" y="0px"
	 viewBox="0 0 36 36" style="enable-background:new 0 0 36 36;" xml:space="preserve">
<g>
	<path fill="#969696" d="M18.1-0.1c-9.9,0-18,8.1-18,18s8.1,18,18,18s18-8.1,18-18S28-0.1,18.1-0.1z M18,34.9c-9.4,0-17-7.6-17-17
		c0-9.4,7.6-17,17-17c9.4,0,17,7.6,17,17C35,27.3,27.4,34.9,18,34.9z"/>
</g>
<path fill="#969696" d="M18.5,14.4h-2.5v8h2.5c0,0,0-3,0-4.2c0-2.3,3-2.5,3,0c0,1.2,0,4.2,0,4.2h2.5c0,0,0-2.9,0-5.1c0-3.9-4.5-3.8-5.5-1.9V14.4z
	 M14.6,14.4h-2.5v8h2.5V14.4z M14.5,12.2c0,0.7-0.6,1.2-1.2,1.2s-1.2-0.6-1.2-1.2c0-0.7,0.6-1.2,1.2-1.2S14.5,11.5,14.5,12.2z"/>
</svg>
