<?xml version="1.0" standalone="no"?>
<!DOCTYPE svg PUBLIC "-//W3C//DTD SVG 20010904//EN"
 "http://www.w3.org/TR/2001/REC-SVG-20010904/DTD/svg10.dtd">
<svg version="1.0" xmlns="http://www.w3.org/2000/svg"
 width="1360.000000pt" height="286.000000pt" viewBox="0 0 1360.000000 286.000000"
 preserveAspectRatio="xMidYMid meet">
<g transform="translate(0.000000,286.000000) scale(0.100000,-0.100000)"
fill="#0c336c" stroke="none">
<rect x="5" y="20" width="2860" height="3000"  fill="#ffffff"  stroke-width="50" stroke="#ffffff"/>
<path d="M50 1435 l0 -1375 1385 0 1385 0 0 1375 0 1375 -1385 0 -1385 0 0
-1375z m1540 1035 c198 -18 284 -41 433 -117 94 -48 208 -146 271 -231 151
-207 224 -551 185 -877 -50 -423 -249 -687 -612 -814 -124 -43 -239 -55 -496
-48 -261 6 -333 21 -499 103 -285 141 -451 411 -483 783 -15 177 5 440 42 561
59 186 183 365 324 465 79 56 120 76 245 120 176 61 343 77 590 55z"/>
<path fill="#0c336c" d="M1266 2309 c-155 -18 -323 -76 -416 -144 -116 -85 -212 -226 -260
-380 -49 -162 -50 -574 0 -725 40 -120 99 -219 180 -301 64 -65 91 -84 180
-127 134 -64 217 -82 411 -89 363 -13 568 46 735 212 68 67 90 98 128 176 65
135 87 231 93 421 16 451 -112 734 -392 868 -110 52 -216 78 -375 90 -150 11
-183 11 -284 -1z m68 -146 c3 -10 8 -89 12 -175 l7 -158 397 0 397 0 16 -87
c25 -130 39 -244 32 -251 -4 -4 -133 -10 -288 -13 -155 -4 -284 -7 -285 -8 -2
0 24 -31 59 -68 202 -219 384 -421 397 -442 16 -24 15 -25 -66 -102 -46 -43
-103 -91 -129 -106 l-46 -27 -45 50 c-25 27 -135 140 -244 251 l-198 203 0
-285 c0 -157 -3 -285 -7 -285 -25 1 -226 31 -269 40 l-51 11 -6 277 c-4 152
-7 325 -7 385 l0 107 -165 0 -165 0 0 63 c0 100 27 260 47 275 11 8 59 12 150
12 l133 0 0 150 c0 126 2 152 15 157 28 10 219 41 262 42 31 1 43 -3 47 -16z"/>
<path fill="#000" d="M4057 1903 c-8 -10 -81 -144 -161 -298 -80 -154 -187 -361 -239 -460
-51 -99 -92 -182 -91 -183 1 -2 41 -1 88 3 l86 7 62 119 62 119 255 0 256 0
52 -103 c29 -56 58 -110 65 -119 10 -12 37 -18 101 -23 l88 -7 -240 481 -241
481 -63 0 c-48 0 -68 -4 -80 -17z m156 -363 c49 -93 86 -174 82 -180 -6 -10
-365 -15 -365 -5 0 19 180 355 190 355 3 0 45 -76 93 -170z"/>
<path fill="#000" d="M4806 1898 c-3 -13 -6 -229 -6 -480 l0 -458 325 0 325 0 0 70 0 70
-245 0 -245 0 0 410 0 410 -74 0 c-68 0 -74 -2 -80 -22z"/>
<path fill="#000" d="M5570 1901 c-6 -13 -10 -182 -10 -480 l0 -461 85 0 85 0 0 175 0 175
143 0 c303 1 440 48 501 173 22 44 27 68 27 130 0 42 -5 94 -12 117 -16 54
-78 123 -133 150 -57 27 -204 40 -473 40 -190 0 -203 -1 -213 -19z m579 -143
c53 -27 91 -89 91 -148 0 -20 -10 -56 -22 -80 -33 -64 -62 -71 -293 -73 l-190
-2 -3 169 -2 169 186 -6 c169 -5 191 -8 233 -29z"/>
<path fill="#000" d="M6557 1913 c-7 -12 -12 -435 -9 -710 l2 -243 85 0 85 0 0 215 0 215
290 0 290 0 0 -215 0 -215 80 0 80 0 0 480 0 480 -80 0 -80 0 0 -190 0 -190
-290 0 -290 0 0 63 c0 34 -3 119 -7 190 l-6 127 -73 0 c-40 0 -75 -3 -77 -7z"/>
<path fill="#000" d="M8087 1902 c-22 -24 -487 -919 -487 -937 0 -3 37 -5 83 -5 l82 0 65
125 65 125 255 0 255 0 63 -125 62 -125 72 0 c40 0 79 4 86 9 10 6 -42 119
-222 480 l-236 471 -63 0 c-49 0 -68 -4 -80 -18z m162 -369 c50 -94 91 -174
91 -177 0 -3 -85 -6 -190 -6 l-190 0 92 185 c51 101 96 181 100 177 4 -4 48
-84 97 -179z"/>
<path fill="#000" d="M9130 1440 l0 -480 243 0 c319 1 482 12 527 34 101 51 157 149 147
256 -8 87 -58 166 -134 208 -15 9 -13 15 24 55 101 110 68 291 -67 360 -47 24
-74 29 -185 37 -71 5 -226 10 -342 10 l-213 0 0 -480z m475 341 c156 -9 194
-22 220 -71 21 -40 19 -71 -8 -111 -42 -64 -75 -72 -314 -77 l-213 -5 0 137 0
136 88 -1 c48 0 150 -4 227 -8z m196 -413 c95 -41 114 -150 41 -234 l-27 -31
-262 -7 -263 -7 0 152 0 152 238 -5 c180 -4 246 -9 273 -20z"/>
<path fill="#000" d="M10557 1838 c-24 -46 -122 -234 -217 -418 -95 -184 -188 -363 -207
-397 l-35 -63 89 0 88 0 65 123 65 122 255 3 255 2 64 -125 64 -125 88 0 c49
0 89 3 89 7 0 16 -474 929 -488 941 -9 6 -42 12 -73 12 l-58 0 -44 -82z m206
-316 l88 -172 -185 0 c-120 0 -186 4 -186 10 0 13 91 196 138 278 20 34 41 61
47 59 5 -2 50 -81 98 -175z"/>
<path fill="#000" d="M11354 1908 c-4 -7 -10 -223 -12 -480 l-5 -468 77 0 76 0 1 288 c1
158 4 334 8 392 l6 104 328 -392 328 -392 84 0 85 0 0 480 0 480 -65 0 -65 0
-1 -97 c-1 -54 -4 -222 -8 -373 l-6 -274 -225 260 c-124 143 -268 310 -320
371 l-95 112 -92 0 c-61 1 -94 -3 -99 -11z"/>
<path fill="#000" d="M12610 1440 l0 -480 80 0 80 0 0 168 1 167 70 53 c66 51 71 53 92 39
12 -9 119 -108 237 -221 l215 -205 103 -1 c56 0 102 4 102 8 0 4 -84 86 -187
182 -373 348 -366 340 -346 363 10 11 113 97 228 192 116 95 219 182 229 194
l19 21 -89 0 -89 -1 -285 -228 -285 -229 -6 91 c-4 51 -7 154 -8 230 l-1 137
-80 0 -80 0 0 -480z"/>
</g>
</svg>
