<svg xmlns="http://www.w3.org/2000/svg" xmlns:xlink="http://www.w3.org/1999/xlink" version="1.1" style="enable-background:new 0 0 512 512;" xml:space="preserve" width="512" height="512"><rect id="backgroundrect" width="100%" height="100%" x="0" y="0" fill="none" stroke="none"/>

<g class="currentLayer" style=""><title>Layer 1</title><g id="XMLID_1_" class="selected" fill-opacity="1" fill="#0061af">
	<path id="XMLID_6_" d="M257.1049723625183,45.171268463134766 C145.40497236251832,45.171268463134766 48.80497236251831,110.37126846313475 1.1049723625183105,205.17126846313477 c47.7,94.8 144.3,160 256,160 s208.3,-65.2 256,-160 C465.4049723625183,110.37126846313475 368.8049723625183,45.171268463134766 257.1049723625183,45.171268463134766 zM383.4049723625183,130.07126846313477 c30.3,19.2 55.9,44.8 74.5,75.1 c-19.2,30.3 -44.8,55.9 -74.5,75.1 c-37.8,23.9 -81.5,36.7 -126.3,36.7 s-88.4,-12.8 -126.3,-36.7 c-30.3,-19.2 -55.9,-44.8 -74.5,-75.1 c19.2,-30.3 44.8,-55.9 74.5,-75.1 l5.8,-3.5 c-4.7,13.4 -7.6,27.9 -7.6,43.6 c0,70.4 57.6,128 128,128 s128,-57.6 128,-128 c0,-15.1 -2.9,-30.3 -7.6,-43.6 L383.4049723625183,130.07126846313477 L383.4049723625183,130.07126846313477 zM257.1049723625183,157.47126846313478 c0,26.8 -21.5,48.3 -48.3,48.3 s-48.3,-21.5 -48.3,-48.3 s21.5,-48.3 48.3,-48.3 S257.1049723625183,130.67126846313477 257.1049723625183,157.47126846313478 z" fill="#0061af"/>
</g></g></svg>