<?xml version="1.0" encoding="utf-8"?>
<!-- Generator: Adobe Illustrator 21.1.0, SVG Export Plug-In . SVG Version: 6.00 Build 0)  -->
<svg version="1.1" id="Layer_1" xmlns="http://www.w3.org/2000/svg" xmlns:xlink="http://www.w3.org/1999/xlink" x="0px" y="0px"
	 viewBox="0 0 36 36" style="enable-background:new 0 0 36 36;color:#ffffff" xml:space="preserve">
<g>
	<g>
		<path fill="#FFFFFF" d="M28.5,22.4c-0.7-0.8-1.6-1.2-2.5-1.2c-0.9,0-1.8,0.4-2.5,1.1L21,24.9c-0.2-0.1-0.5-0.2-0.7-0.3c-0.3-0.1-0.5-0.3-0.8-0.4
			c-2.3-1.4-4.3-3.3-6.3-5.8c-1-1.3-1.7-2.3-2.1-3.4c0.6-0.6,1.3-1.2,1.8-1.8c0.2-0.2,0.4-0.4,0.6-0.7c1.6-1.6,1.6-3.5,0-5.1
			l-2.1-2.1c-0.2-0.2-0.5-0.5-0.7-0.7c-0.5-0.5-0.9-1-1.4-1.4C8.6,2.5,7.8,2.1,6.8,2.1c-0.9,0-1.8,0.4-2.5,1.1L1.7,5.8
			c-1,1-1.5,2.1-1.6,3.5c-0.1,1.7,0.2,3.5,1,5.6c1.2,3.3,3.1,6.4,5.8,9.7c3.3,4,7.4,7.1,11.9,9.4c1.7,0.8,4.1,1.8,6.7,2
			c0.2,0,0.3,0,0.5,0c1.7,0,3.2-0.6,4.3-1.9c0,0,0,0,0,0c0.4-0.5,0.9-0.9,1.4-1.4c0.3-0.3,0.7-0.6,1-1c1.5-1.6,1.5-3.6,0-5.1
			L28.5,22.4z M31.4,30.5c-0.3,0.3-0.6,0.6-0.9,0.9c-0.5,0.5-1,1-1.5,1.5c-0.8,0.9-1.7,1.3-3,1.3c-0.1,0-0.2,0-0.4,0
			c-2.3-0.1-4.4-1-6-1.8c-4.4-2.1-8.2-5.1-11.4-8.9c-2.6-3.1-4.4-6.1-5.5-9.2c-0.7-1.9-1-3.4-0.9-4.9C2,8.5,2.3,7.7,3,7.1l2.6-2.6
			C6,4.1,6.4,3.9,6.9,3.9c0.4,0,0.8,0.2,1.2,0.6C8.6,4.9,9,5.4,9.5,5.9c0.2,0.2,0.5,0.5,0.7,0.7l2.1,2.1c0.9,0.9,0.9,1.7,0,2.6
			c-0.2,0.2-0.4,0.4-0.7,0.7c-0.6,0.7-1.3,1.3-1.9,1.9c0,0,0,0,0,0c-0.6,0.6-0.5,1.2-0.4,1.6c0,0,0,0,0,0.1c0.5,1.3,1.3,2.5,2.5,4
			c2.1,2.6,4.3,4.6,6.8,6.2c0.3,0.2,0.6,0.4,0.9,0.5c0.3,0.1,0.5,0.3,0.8,0.4c0,0,0.1,0,0.1,0c0.2,0.1,0.5,0.2,0.7,0.2
			c0.6,0,1-0.4,1.1-0.5l2.6-2.6c0.4-0.4,0.8-0.6,1.2-0.6c0.5,0,0.9,0.3,1.2,0.6l4.2,4.2C32.4,29,32,29.9,31.4,30.5z M24.9,11.1
			c1.5,1.5,2.4,3.3,2.8,5.4c0.1,0.4,0.5,0.8,0.9,0.8c0.1,0,0.1,0,0.2,0c0.5-0.1,0.8-0.6,0.7-1c-0.4-2.4-1.5-4.6-3.3-6.3
			c-1.7-1.7-3.9-2.9-6.3-3.3c-0.5-0.1-1,0.3-1,0.7c-0.1,0.5,0.3,1,0.7,1C21.5,8.7,23.4,9.7,24.9,11.1z M30.6,5.4
			C27.7,2.5,24.1,0.7,20.1,0c-0.5-0.1-1,0.3-1,0.7c-0.1,0.5,0.3,1,0.7,1c3.6,0.6,6.9,2.3,9.5,4.9c2.6,2.6,4.3,5.9,4.9,9.5
			c0.1,0.4,0.5,0.8,0.9,0.8c0.1,0,0.1,0,0.2,0c0.5-0.1,0.8-0.6,0.7-1C35.3,11.9,33.4,8.3,30.6,5.4z"/>
	</g>
</g>
</svg>
