<?xml version="1.0" encoding="utf-8"?>
<!-- Generator: Adobe Illustrator 21.1.0, SVG Export Plug-In . SVG Version: 6.00 Build 0)  -->
<svg version="1.1" id="Layer_1" xmlns="http://www.w3.org/2000/svg" xmlns:xlink="http://www.w3.org/1999/xlink" x="0px" y="0px"
	 viewBox="0 0 36 36" style="enable-background:new 0 0 36 36;" xml:space="preserve">
<g>
	<path fill="#969696" d="M18.1-0.1c-9.9,0-18,8.1-18,18s8.1,18,18,18s18-8.1,18-18S28-0.1,18.1-0.1z M18,34.9c-9.4,0-17-7.6-17-17
		c0-9.4,7.6-17,17-17c9.4,0,17,7.6,17,17C35,27.3,27.4,34.9,18,34.9z"/>
</g>
<path fill="#969696" d="M24,14.3c-0.4,0.2-0.9,0.3-1.4,0.4c0.5-0.3,0.9-0.8,1.1-1.4c-0.5,0.3-1,0.5-1.6,0.6c-0.4-0.5-1.1-0.8-1.8-0.8
	c-1.6,0-2.8,1.5-2.4,3c-2-0.1-3.9-1.1-5.1-2.6c-0.6,1.1-0.3,2.6,0.8,3.3c-0.4,0-0.8-0.1-1.1-0.3c0,1.1,0.8,2.2,2,2.4
	c-0.3,0.1-0.7,0.1-1.1,0c0.3,1,1.2,1.7,2.3,1.7c-1,0.8-2.3,1.2-3.6,1c1.1,0.7,2.4,1.1,3.8,1.1c4.6,0,7.2-3.9,7-7.3
	C23.3,15.2,23.7,14.8,24,14.3z"/>
</svg>
