<?xml version="1.0" encoding="utf-8"?>
<!-- Generator: Adobe Illustrator 21.1.0, SVG Export Plug-In . SVG Version: 6.00 Build 0)  -->
<svg version="1.1" id="Layer_1" xmlns="http://www.w3.org/2000/svg" xmlns:xlink="http://www.w3.org/1999/xlink" x="0px" y="0px"
	 viewBox="0 0 36 36" style="enable-background:new 0 0 36 36;" xml:space="preserve">
<g>
	<path fill="#969696" d="M18.1-0.1c-9.9,0-18,8.1-18,18s8.1,18,18,18s18-8.1,18-18S28-0.1,18.1-0.1z M18,34.9c-9.4,0-17-7.6-17-17
		c0-9.4,7.6-17,17-17c9.4,0,17,7.6,17,17C35,27.3,27.4,34.9,18,34.9z"/>
</g>
<path fill="#969696" d="M16.5,20.1v-4.1l4,2.1L16.5,20.1z M21.8,13.4c-1.8-0.1-5.8-0.1-7.6,0C12.2,13.6,12,14.8,12,18c0,3.2,0.2,4.4,2.2,4.6
	c1.8,0.1,5.8,0.1,7.6,0c1.9-0.1,2.2-1.4,2.2-4.6C24,14.8,23.8,13.6,21.8,13.4z"/>
</svg>
